<?xml version="1.0" encoding="iso-8859-1"?>
<!-- Uploaded to: SVG Repo, www.svgrepo.com, Generator: SVG Repo Mixer Tools -->
<svg height="800px" width="800px" version="1.1" id="Layer_1" xmlns="http://www.w3.org/2000/svg" xmlns:xlink="http://www.w3.org/1999/xlink" 
	 viewBox="0 0 512 512" xml:space="preserve">
<g transform="translate(1 1)">
	<path style="fill:#FDCC00;" d="M366.258,502.467H143.734c-13.952,0-25.267-11.315-25.267-25.276V32.809
		c0-13.96,11.315-25.276,25.267-25.276h222.524c13.961,0,25.276,11.315,25.276,25.276v444.382
		C391.533,491.152,380.218,502.467,366.258,502.467"/>
	<polygon style="fill:#FFE100;" points="118.467,434.2 391.533,434.2 391.533,58.733 118.467,58.733 	"/>
	<path style="fill:#00DA6C;" d="M340.333,246.467c0,47.13-38.204,85.333-85.333,85.333s-85.333-38.204-85.333-85.333
		S207.87,161.133,255,161.133S340.333,199.337,340.333,246.467"/>
	<path style="fill:#63D3FD;" d="M275.847,300.278c-3.183-1.587-5.188-4.838-5.188-8.397v-9.66c0.691-0.785,1.485-1.801,2.33-2.995
		c3.354-4.736,5.888-9.95,7.646-15.411c3.157-0.973,5.487-3.891,5.487-7.356v-10.308c0-2.27-1.007-4.301-2.577-5.717v-14.899
		c0,0,2.859-21.734-28.544-21.734c-31.411,0-28.143,21.734-28.143,21.734v14.899c-1.57,1.416-2.577,3.447-2.577,5.717v10.308
		c0,2.714,1.425,5.103,3.558,6.485c2.577,11.213,9.318,19.277,9.318,19.277v9.421c0,3.439-1.869,6.596-4.89,8.243l-22.989,12.535
		c-1.57,0.862-2.97,1.929-4.241,3.123C219.092,325.724,236.312,331.8,255,331.8c18.645,0,35.849-6.05,49.886-16.205
		c-1.323-1.169-2.799-2.193-4.429-3.012L275.847,300.278z"/>
	<g>
		<path style="fill:#FFE100;" d="M468.333,178.2c-4.719,0-8.533-3.823-8.533-8.533v-34.133c0-4.71,3.814-8.533,8.533-8.533
			c4.719,0,8.533,3.823,8.533,8.533v34.133C476.867,174.377,473.052,178.2,468.333,178.2z"/>
		<path style="fill:#FFE100;" d="M485.4,161.133h-34.133c-4.719,0-8.533-3.823-8.533-8.533s3.814-8.533,8.533-8.533H485.4
			c4.719,0,8.533,3.823,8.533,8.533S490.119,161.133,485.4,161.133z"/>
		<path style="fill:#FFE100;" d="M41.667,7.533c0,18.867-15.266,34.133-34.133,34.133c18.867,0,34.133,15.266,34.133,34.133
			c0-18.867,15.266-34.133,34.133-34.133C56.933,41.667,41.667,26.401,41.667,7.533"/>
		<path style="fill:#FFE100;" d="M75.8,383c0,4.71-3.823,8.533-8.533,8.533s-8.533-3.823-8.533-8.533s3.823-8.533,8.533-8.533
			S75.8,378.29,75.8,383"/>
		<path style="fill:#FFE100;" d="M33.133,229.4c0,4.71-3.823,8.533-8.533,8.533s-8.533-3.823-8.533-8.533s3.823-8.533,8.533-8.533
			S33.133,224.69,33.133,229.4"/>
		<path style="fill:#FFE100;" d="M451.267,314.733c0,4.71-3.823,8.533-8.533,8.533s-8.533-3.823-8.533-8.533
			s3.823-8.533,8.533-8.533S451.267,310.023,451.267,314.733"/>
		<path style="fill:#FFE100;" d="M511,493.933c0,4.71-3.823,8.533-8.533,8.533s-8.533-3.823-8.533-8.533s3.823-8.533,8.533-8.533
			S511,489.223,511,493.933"/>
		<path style="fill:#FFE100;" d="M280.6,468.333c0,14.14-11.46,25.6-25.6,25.6c-14.14,0-25.6-11.46-25.6-25.6
			c0-14.14,11.46-25.6,25.6-25.6C269.14,442.733,280.6,454.194,280.6,468.333"/>
	</g>
	<path style="fill:#FFA800;" d="M366.258,7.533h-25.6c13.961,0,25.276,11.315,25.276,25.276v444.382
		c0,13.96-11.315,25.276-25.276,25.276h25.6c13.961,0,25.276-11.315,25.276-25.276V32.809
		C391.533,18.848,380.218,7.533,366.258,7.533"/>
	<path style="fill:#FFFFFF;" d="M143.742,7.533h25.6c-13.96,0-25.276,11.315-25.276,25.276v444.382
		c0,13.96,11.315,25.276,25.276,25.276h-25.6c-13.96,0-25.276-11.315-25.276-25.276V32.809
		C118.467,18.848,129.782,7.533,143.742,7.533"/>
	<path d="M366.258,511H143.734c-18.637,0-33.801-15.164-33.801-33.809V32.809C109.933,14.164,125.097-1,143.734-1h222.524
		c18.645,0,33.809,15.164,33.809,33.809v444.382C400.067,495.836,384.903,511,366.258,511z M143.734,16.067
		c-9.224,0-16.734,7.509-16.734,16.742v444.382c0,9.233,7.509,16.742,16.734,16.742h222.524c9.233,0,16.742-7.509,16.742-16.742
		V32.809c0-9.233-7.509-16.742-16.742-16.742H143.734z"/>
	<path d="M400.067,442.733H109.933V50.2h290.133V442.733z M127,425.667h256v-358.4H127V425.667z"/>
	<path d="M289.133,41.667h-42.667c-4.71,0-8.533-3.823-8.533-8.533s3.823-8.533,8.533-8.533h42.667c4.719,0,8.533,3.823,8.533,8.533
		S293.852,41.667,289.133,41.667z"/>
	<path d="M220.867,41.667h-8.533c-4.71,0-8.533-3.823-8.533-8.533s3.823-8.533,8.533-8.533h8.533c4.71,0,8.533,3.823,8.533,8.533
		S225.577,41.667,220.867,41.667z"/>
	<path d="M109.933,101.4c-4.71,0-8.533-3.823-8.533-8.533v-8.533c0-4.71,3.823-8.533,8.533-8.533c4.71,0,8.533,3.823,8.533,8.533
		v8.533C118.467,97.577,114.644,101.4,109.933,101.4z"/>
	<path d="M109.933,135.533c-4.71,0-8.533-3.823-8.533-8.533v-8.533c0-4.71,3.823-8.533,8.533-8.533c4.71,0,8.533,3.823,8.533,8.533
		V127C118.467,131.71,114.644,135.533,109.933,135.533z"/>
	<path d="M109.933,169.667c-4.71,0-8.533-3.823-8.533-8.533V152.6c0-4.71,3.823-8.533,8.533-8.533c4.71,0,8.533,3.823,8.533,8.533
		v8.533C118.467,165.844,114.644,169.667,109.933,169.667z"/>
	<path d="M255,502.467c-18.824,0-34.133-15.309-34.133-34.133c0-18.824,15.309-34.133,34.133-34.133s34.133,15.309,34.133,34.133
		C289.133,487.158,273.824,502.467,255,502.467z M255,451.267c-9.412,0-17.067,7.654-17.067,17.067
		c0,9.412,7.654,17.067,17.067,17.067s17.067-7.654,17.067-17.067C272.067,458.921,264.412,451.267,255,451.267z"/>
	<path d="M255,340.333c-51.755,0-93.867-42.112-93.867-93.867S203.245,152.6,255,152.6s93.867,42.112,93.867,93.867
		S306.755,340.333,255,340.333z M255,169.667c-42.342,0-76.8,34.458-76.8,76.8c0,42.351,34.458,76.8,76.8,76.8
		c42.351,0,76.8-34.449,76.8-76.8C331.8,204.124,297.351,169.667,255,169.667z"/>
	<path d="M255,340.333c-19.814,0-38.827-6.187-54.972-17.886c-2.057-1.493-3.345-3.823-3.507-6.366s0.819-5.026,2.679-6.767
		c1.869-1.749,3.874-3.217,5.956-4.378l23.023-12.553c0.282-0.154,0.435-0.435,0.435-0.751v-6.596
		c-2.313-3.336-6.093-9.557-8.363-17.365c-2.867-2.995-4.514-6.98-4.514-11.213v-10.308c0-3.115,0.913-6.144,2.577-8.73v-11.418
		c-0.265-2.842-0.452-11.785,6.255-19.584c6.366-7.398,16.597-11.145,30.413-11.145c13.798,0,24.073,3.738,30.532,11.102
		c6.861,7.825,6.767,16.828,6.554,19.558v11.494c1.664,2.594,2.577,5.623,2.577,8.73v10.308c0,5.496-2.722,10.445-7.1,13.406
		c-1.954,5.129-4.506,9.916-7.603,14.293c-0.256,0.358-0.521,0.717-0.768,1.049v6.673c0,0.324,0.179,0.606,0.461,0.751
		c0.009,0,0.009,0.009,0.017,0.009l24.61,12.305c2.219,1.109,4.326,2.534,6.255,4.233c1.946,1.715,3.012,4.224,2.884,6.818
		s-1.425,4.984-3.524,6.511C293.776,334.164,274.789,340.333,255,340.333z M221.455,315.501
		c20.599,10.112,45.739,10.214,66.423,0.333l-15.821-7.919c-6.127-3.046-9.924-9.19-9.924-16.034v-9.66
		c0-2.065,0.751-4.062,2.108-5.615c0.538-0.606,1.143-1.391,1.792-2.313c2.773-3.917,4.958-8.329,6.494-13.099
		c0.802-2.475,2.671-4.437,5.077-5.351v-9.694c-1.792-1.613-2.577-3.302-2.577-5.717v-14.899c0-0.367,0.026-0.742,0.077-1.109
		c-0.009,0,0.299-3.857-2.526-6.946c-3.072-3.362-9.148-5.146-17.562-5.146c-8.499,0-14.549,1.801-17.485,5.214
		c-2.543,2.961-2.227,6.682-2.219,6.716c0.06,0.418,0.094,0.845,0.094,1.271v14.899c0,2.415-1.024,4.719-2.816,6.34l0.239,9.685
		c1.86,1.203,2.842,2.415,3.345,4.574c2.065,8.977,7.492,15.659,7.552,15.727c1.28,1.536,1.98,3.465,1.98,5.47v9.421
		c0,6.579-3.576,12.612-9.344,15.744L221.455,315.501z"/>
	<path d="M357.4,135.533H152.6c-4.71,0-8.533-3.823-8.533-8.533V92.867c0-4.71,3.823-8.533,8.533-8.533h204.8
		c4.719,0,8.533,3.823,8.533,8.533V127C365.933,131.71,362.119,135.533,357.4,135.533z M161.133,118.467h187.733V101.4H161.133
		V118.467z"/>
	<path d="M357.4,408.6H152.6c-4.71,0-8.533-3.814-8.533-8.533v-34.133c0-4.719,3.823-8.533,8.533-8.533h204.8
		c4.719,0,8.533,3.814,8.533,8.533v34.133C365.933,404.786,362.119,408.6,357.4,408.6z M161.133,391.533h187.733v-17.067H161.133
		V391.533z"/>
	<path d="M41.667,84.333c-4.71,0-8.533-3.823-8.533-8.533c0-14.114-11.486-25.6-25.6-25.6C2.823,50.2-1,46.377-1,41.667
		s3.823-8.533,8.533-8.533c14.114,0,25.6-11.486,25.6-25.6c0-4.71,3.823-8.533,8.533-8.533S50.2,2.823,50.2,7.533
		c0,14.114,11.486,25.6,25.6,25.6c4.71,0,8.533,3.823,8.533,8.533S80.51,50.2,75.8,50.2c-14.114,0-25.6,11.486-25.6,25.6
		C50.2,80.51,46.377,84.333,41.667,84.333z M33.108,41.667c3.234,2.432,6.127,5.325,8.559,8.559
		c2.432-3.234,5.325-6.127,8.559-8.559c-3.234-2.432-6.127-5.325-8.559-8.559C39.235,36.342,36.342,39.235,33.108,41.667z"/>
	<path d="M459.8,169.667c-4.719,0-8.533-3.823-8.533-8.533V127c0-4.71,3.814-8.533,8.533-8.533s8.533,3.823,8.533,8.533v34.133
		C468.333,165.844,464.519,169.667,459.8,169.667z"/>
	<path d="M476.867,152.6h-34.133c-4.719,0-8.533-3.823-8.533-8.533c0-4.71,3.814-8.533,8.533-8.533h34.133
		c4.719,0,8.533,3.823,8.533,8.533C485.4,148.777,481.586,152.6,476.867,152.6z"/>
	<path d="M67.267,374.467c0,4.71-3.823,8.533-8.533,8.533s-8.533-3.823-8.533-8.533s3.823-8.533,8.533-8.533
		S67.267,369.756,67.267,374.467"/>
	<path d="M24.6,220.867c0,4.71-3.823,8.533-8.533,8.533s-8.533-3.823-8.533-8.533s3.823-8.533,8.533-8.533
		S24.6,216.156,24.6,220.867"/>
	<path d="M442.733,306.2c0,4.71-3.823,8.533-8.533,8.533s-8.533-3.823-8.533-8.533s3.823-8.533,8.533-8.533
		S442.733,301.49,442.733,306.2"/>
	<path d="M502.467,485.4c0,4.71-3.823,8.533-8.533,8.533s-8.533-3.823-8.533-8.533s3.823-8.533,8.533-8.533
		S502.467,480.69,502.467,485.4"/>
</g>
</svg>